<svg xmlns="http://www.w3.org/2000/svg" version="1.1" width="96" height="96" viewBox="0 0 96 96"><rect x="0" y="0" width="96" height="96" fill="#ffffff"/><g transform="scale(2.341)"><g transform="translate(2,2)"><g><g transform="translate(3.5,3.5)"><path fill-rule="evenodd" d="M-3.5 -3.5L-3.5 3.5L3.5 3.5L3.5 -3.5ZM-2.5 -2.5L-2.5 2.5L2.5 2.5L2.5 -2.5Z" fill="#000000"/><path fill-rule="evenodd" d="M-1.5 -1.5L-1.5 1.5L1.5 1.5L1.5 -1.5Z" fill="#000000"/></g></g><g><g transform="translate(33.5,3.5)"><g transform="rotate(90)"><path fill-rule="evenodd" d="M-3.5 -3.5L-3.5 3.5L3.5 3.5L3.5 -3.5ZM-2.5 -2.5L-2.5 2.5L2.5 2.5L2.5 -2.5Z" fill="#000000"/><path fill-rule="evenodd" d="M-1.5 -1.5L-1.5 1.5L1.5 1.5L1.5 -1.5Z" fill="#000000"/></g></g></g><g><g transform="translate(3.5,33.5)"><g transform="rotate(-90)"><path fill-rule="evenodd" d="M-3.5 -3.5L-3.5 3.5L3.5 3.5L3.5 -3.5ZM-2.5 -2.5L-2.5 2.5L2.5 2.5L2.5 -2.5Z" fill="#000000"/><path fill-rule="evenodd" d="M-1.5 -1.5L-1.5 1.5L1.5 1.5L1.5 -1.5Z" fill="#000000"/></g></g></g><path fill-rule="evenodd" d="M12 0L12 1L11 1L11 3L12 3L12 2L14 2L14 3L13 3L13 5L12 5L12 7L11 7L11 4L10 4L10 1L8 1L8 7L9 7L9 8L5 8L5 10L6 10L6 11L5 11L5 12L4 12L4 11L3 11L3 15L2 15L2 13L1 13L1 12L0 12L0 13L1 13L1 15L2 15L2 16L1 16L1 18L0 18L0 20L1 20L1 21L0 21L0 22L1 22L1 21L2 21L2 22L3 22L3 25L4 25L4 23L5 23L5 26L6 26L6 27L7 27L7 28L5 28L5 27L4 27L4 26L0 26L0 27L2 27L2 28L0 28L0 29L2 29L2 28L3 28L3 27L4 27L4 29L8 29L8 32L9 32L9 33L10 33L10 34L8 34L8 35L10 35L10 37L12 37L12 36L11 36L11 35L13 35L13 37L16 37L16 35L17 35L17 34L16 34L16 33L18 33L18 32L17 32L17 31L16 31L16 33L15 33L15 31L14 31L14 30L16 30L16 28L18 28L18 27L20 27L20 28L19 28L19 29L20 29L20 28L21 28L21 27L23 27L23 28L22 28L22 29L23 29L23 30L24 30L24 31L23 31L23 32L21 32L21 31L19 31L19 33L24 33L24 32L25 32L25 33L26 33L26 34L27 34L27 33L28 33L28 35L27 35L27 36L26 36L26 35L25 35L25 37L27 37L27 36L28 36L28 37L29 37L29 36L30 36L30 35L31 35L31 34L29 34L29 33L32 33L32 34L33 34L33 35L32 35L32 36L31 36L31 37L34 37L34 36L36 36L36 37L37 37L37 34L36 34L36 33L37 33L37 31L36 31L36 33L35 33L35 31L34 31L34 28L35 28L35 27L34 27L34 25L35 25L35 24L34 24L34 23L33 23L33 25L32 25L32 26L30 26L30 27L29 27L29 26L26 26L26 27L25 27L25 25L26 25L26 23L25 23L25 24L24 24L24 23L22 23L22 19L24 19L24 17L27 17L27 25L30 25L30 24L32 24L32 23L31 23L31 22L32 22L32 21L33 21L33 22L34 22L34 21L35 21L35 23L36 23L36 25L37 25L37 23L36 23L36 22L37 22L37 21L36 21L36 20L37 20L37 18L36 18L36 20L34 20L34 17L35 17L35 16L36 16L36 17L37 17L37 14L35 14L35 16L34 16L34 14L33 14L33 16L32 16L32 15L31 15L31 14L30 14L30 15L29 15L29 13L28 13L28 14L27 14L27 13L26 13L26 14L27 14L27 15L26 15L26 16L23 16L23 15L24 15L24 14L25 14L25 13L22 13L22 12L24 12L24 10L25 10L25 9L26 9L26 11L25 11L25 12L26 12L26 11L27 11L27 12L30 12L30 13L33 13L33 12L35 12L35 11L34 11L34 10L33 10L33 9L35 9L35 10L37 10L37 9L36 9L36 8L31 8L31 9L32 9L32 10L30 10L30 11L29 11L29 9L30 9L30 8L28 8L28 7L29 7L29 4L28 4L28 5L27 5L27 2L26 2L26 1L28 1L28 2L29 2L29 1L28 1L28 0L24 0L24 1L22 1L22 0L21 0L21 2L20 2L20 0L18 0L18 3L15 3L15 2L16 2L16 1L17 1L17 0L15 0L15 1L13 1L13 0ZM24 1L24 3L26 3L26 2L25 2L25 1ZM19 2L19 4L20 4L20 6L19 6L19 7L18 7L18 4L15 4L15 3L14 3L14 4L15 4L15 5L14 5L14 6L13 6L13 8L14 8L14 6L15 6L15 7L16 7L16 6L17 6L17 9L16 9L16 10L17 10L17 12L16 12L16 11L15 11L15 13L14 13L14 11L13 11L13 10L14 10L14 9L13 9L13 10L12 10L12 11L11 11L11 12L10 12L10 13L9 13L9 12L8 12L8 11L9 11L9 10L11 10L11 9L10 9L10 8L9 8L9 9L8 9L8 10L7 10L7 9L6 9L6 10L7 10L7 11L6 11L6 12L8 12L8 13L6 13L6 14L7 14L7 15L5 15L5 13L4 13L4 15L3 15L3 16L2 16L2 17L3 17L3 19L2 19L2 21L3 21L3 22L4 22L4 21L5 21L5 22L9 22L9 23L8 23L8 24L9 24L9 25L8 25L8 26L7 26L7 25L6 25L6 26L7 26L7 27L9 27L9 30L10 30L10 31L11 31L11 30L13 30L13 29L14 29L14 28L16 28L16 27L14 27L14 26L18 26L18 25L19 25L19 23L21 23L21 22L20 22L20 21L19 21L19 20L21 20L21 19L22 19L22 18L23 18L23 16L22 16L22 18L21 18L21 16L19 16L19 17L18 17L18 18L16 18L16 17L17 17L17 15L16 15L16 14L15 14L15 13L17 13L17 14L18 14L18 13L19 13L19 14L21 14L21 15L23 15L23 14L22 14L22 13L21 13L21 12L22 12L22 11L23 11L23 10L24 10L24 9L22 9L22 10L21 10L21 8L22 8L22 6L23 6L23 8L24 8L24 4L23 4L23 2L21 2L21 3L22 3L22 4L23 4L23 5L21 5L21 4L20 4L20 2ZM9 4L9 5L10 5L10 4ZM15 5L15 6L16 6L16 5ZM25 5L25 8L26 8L26 6L27 6L27 7L28 7L28 6L27 6L27 5ZM9 6L9 7L10 7L10 6ZM20 6L20 8L21 8L21 6ZM2 8L2 9L0 9L0 11L1 11L1 10L2 10L2 9L3 9L3 10L4 10L4 9L3 9L3 8ZM18 8L18 10L19 10L19 11L18 11L18 12L17 12L17 13L18 13L18 12L19 12L19 13L20 13L20 12L19 12L19 11L20 11L20 10L19 10L19 8ZM27 9L27 11L28 11L28 9ZM32 10L32 12L33 12L33 10ZM12 11L12 13L13 13L13 11ZM36 11L36 13L37 13L37 11ZM8 13L8 14L9 14L9 13ZM10 13L10 15L7 15L7 16L6 16L6 17L7 17L7 18L6 18L6 19L7 19L7 20L5 20L5 21L8 21L8 19L9 19L9 20L10 20L10 21L12 21L12 20L11 20L11 19L12 19L12 17L13 17L13 18L14 18L14 16L15 16L15 17L16 17L16 15L15 15L15 14L11 14L11 13ZM11 15L11 16L9 16L9 17L8 17L8 16L7 16L7 17L8 17L8 18L9 18L9 19L10 19L10 17L12 17L12 16L14 16L14 15ZM3 16L3 17L4 17L4 19L3 19L3 20L4 20L4 19L5 19L5 17L4 17L4 16ZM28 16L28 19L29 19L29 20L28 20L28 23L30 23L30 22L31 22L31 21L30 21L30 22L29 22L29 20L30 20L30 17L29 17L29 16ZM33 16L33 17L32 17L32 18L31 18L31 19L32 19L32 20L33 20L33 21L34 21L34 20L33 20L33 17L34 17L34 16ZM18 18L18 19L17 19L17 20L14 20L14 19L13 19L13 21L14 21L14 22L13 22L13 23L11 23L11 25L12 25L12 24L13 24L13 25L16 25L16 23L19 23L19 22L18 22L18 20L19 20L19 18ZM20 18L20 19L21 19L21 18ZM25 19L25 22L26 22L26 19ZM15 21L15 23L13 23L13 24L15 24L15 23L16 23L16 21ZM23 21L23 22L24 22L24 21ZM6 23L6 24L7 24L7 23ZM9 23L9 24L10 24L10 23ZM0 24L0 25L1 25L1 24ZM20 24L20 26L22 26L22 24ZM23 24L23 27L24 27L24 24ZM11 26L11 27L10 27L10 30L11 30L11 29L13 29L13 28L14 28L14 27L13 27L13 28L12 28L12 26ZM32 26L32 28L34 28L34 27L33 27L33 26ZM26 27L26 28L25 28L25 31L26 31L26 32L27 32L27 31L28 31L28 30L26 30L26 29L27 29L27 28L29 28L29 27ZM36 27L36 29L35 29L35 30L37 30L37 27ZM23 28L23 29L24 29L24 28ZM17 29L17 30L18 30L18 29ZM29 29L29 32L32 32L32 29ZM30 30L30 31L31 31L31 30ZM12 31L12 33L13 33L13 34L15 34L15 35L14 35L14 36L15 36L15 35L16 35L16 34L15 34L15 33L13 33L13 32L14 32L14 31ZM33 31L33 32L34 32L34 31ZM34 33L34 35L35 35L35 33ZM18 34L18 35L19 35L19 34ZM21 34L21 35L22 35L22 36L19 36L19 37L22 37L22 36L23 36L23 37L24 37L24 36L23 36L23 35L24 35L24 34ZM28 35L28 36L29 36L29 35ZM17 36L17 37L18 37L18 36Z" fill="#000000"/></g></g></svg>
