<svg width="32" height="32" viewBox="0 0 32 32" fill="none" xmlns="http://www.w3.org/2000/svg">
<path d="M24.5104 4.64099H18V6.64099H24.5104V4.64099Z" fill="#1C1C1C"/>
<path d="M23 11C22.8022 11 22.6089 11.0587 22.4444 11.1685C22.28 11.2784 22.1518 11.4346 22.0761 11.6173C22.0004 11.8001 21.9806 12.0011 22.0192 12.1951C22.0578 12.3891 22.153 12.5673 22.2929 12.7071C22.4328 12.847 22.6109 12.9422 22.8049 12.9808C22.9989 13.0194 23.2 12.9996 23.3827 12.9239C23.5654 12.8482 23.7216 12.72 23.8315 12.5556C23.9414 12.3911 24 12.1978 24 12C24 11.7348 23.8947 11.4804 23.7071 11.2929C23.5196 11.1054 23.2652 11 23 11Z" fill="#1C1C1C"/>
<path d="M16.0083 14.6826L15.9976 14.6826C14.887 14.6853 13.8106 15.0994 13.0074 15.8528C12.2019 16.6084 11.736 17.6467 11.736 18.7444L11.736 18.7468C11.7381 19.6222 12.0343 20.4675 12.5717 21.1638L13.1827 21.9555L14.766 20.7335L14.155 19.9419C13.88 19.5855 13.7373 19.1662 13.736 18.7431C13.7363 18.2199 13.9576 17.7036 14.3756 17.3116C14.795 16.9182 15.3768 16.6855 15.9972 16.6827C16.2709 16.6855 16.5414 16.7304 16.7976 16.8148L17.7474 17.1279L18.3735 15.2284L17.4238 14.9153C16.9678 14.765 16.4896 14.6866 16.0083 14.6826Z" fill="#1C1C1C"/>
<path fill-rule="evenodd" clip-rule="evenodd" d="M8.64954 18.7457C8.64954 14.8506 12.0041 11.8047 15.9997 11.8047C19.9953 11.8047 23.3498 14.8506 23.3498 18.7457C23.3498 22.6408 19.9953 25.6867 15.9997 25.6867C12.0041 25.6867 8.64954 22.6408 8.64954 18.7457ZM15.9997 13.8047C12.9811 13.8047 10.6495 16.0785 10.6495 18.7457C10.6495 21.4128 12.9811 23.6867 15.9997 23.6867C19.0183 23.6867 21.3498 21.4128 21.3498 18.7457C21.3498 16.0785 19.0183 13.8047 15.9997 13.8047Z" fill="#1C1C1C"/>
<path fill-rule="evenodd" clip-rule="evenodd" d="M4.50391 2.16016V29.8437H27.4959V2.16016H4.50391ZM6.50391 7.27441L6.50391 4.16016L25.4959 4.16016V7.27441H6.50391ZM6.50391 9.27441L6.50391 27.8437H25.4959V9.27441H6.50391Z" fill="#1C1C1C"/>
</svg>
