<svg width="32" height="32" viewBox="0 0 32 32" fill="none" xmlns="http://www.w3.org/2000/svg">
<path fill-rule="evenodd" clip-rule="evenodd" d="M17 3.3089V4.72092C23.5108 5.19986 28.719 10.3151 28.719 16.6877V17.6877H26.7758C26.7758 17.6877 26.7725 16.8884 26.7758 16.8927C26.7758 16.8927 26.7719 16.8881 26.7617 16.8784C26.7106 16.8299 26.5829 16.7401 26.3419 16.6437C25.8654 16.4529 25.137 16.3123 24.2777 16.3123C23.4185 16.3123 22.6869 16.4529 22.207 16.6442C21.9803 16.7346 21.8526 16.8192 21.7943 16.87V17.6877H19.7943V16.9228C19.6604 16.8504 19.4497 16.7629 19.1485 16.6767C18.5968 16.5187 17.8574 16.3973 16.9999 16.3432V24.9953C16.9999 25.98 16.6214 26.9304 15.9381 27.6361C15.2538 28.3429 14.3187 28.7462 13.3364 28.7462C12.3542 28.7462 11.419 28.3429 10.7346 27.6361C10.0513 26.9303 9.67299 25.9798 9.67299 24.9953V23.9953H11.673V24.9953C11.673 25.47 11.8558 25.9189 12.1715 26.2449C12.4861 26.5698 12.9058 26.7462 13.3364 26.7462C13.7669 26.7462 14.1866 26.5699 14.5013 26.2449C14.817 25.9188 14.9999 25.4698 14.9999 24.9953V16.3432C14.1423 16.3973 13.4029 16.5187 12.8512 16.6767C12.5504 16.7628 12.3398 16.8501 12.2059 16.9225V17.6877H10.2059V16.8499C10.1489 16.7998 10.0226 16.7341 9.79664 16.6437C9.32013 16.4529 8.5918 16.3123 7.73257 16.3123C6.87335 16.3123 6.14173 16.4529 5.6618 16.6442C5.419 16.741 5.21998 16.8497 5.16791 16.8988C5.17082 16.8951 5.17082 17.6877 5.17082 17.6877H3.28076V16.6877C3.28076 10.315 8.49848 5.20047 15 4.72101V3.3089H17ZM13.1113 7.05028C9.28277 8.0453 6.34892 10.9694 5.51824 14.5882C6.17594 14.4084 6.9389 14.3123 7.73257 14.3123C8.6752 14.3123 9.57286 14.4478 10.3022 14.6987C10.6424 11.2645 11.8355 8.73438 13.1113 7.05028ZM12.3071 14.7521C13.2892 14.4719 14.5905 14.3123 15.9999 14.3123C17.4095 14.3123 18.711 14.4719 19.6931 14.7522C19.2255 10.4003 17.2441 7.89401 16.0001 6.8969C14.7561 7.894 12.7747 10.4002 12.3071 14.7521ZM21.6981 14.7005C21.3581 11.2647 20.1644 8.73363 18.8881 7.04922C22.7208 8.04301 25.6516 10.9669 26.4816 14.5863C25.8271 14.4076 25.0682 14.3123 24.2777 14.3123C23.3323 14.3123 22.4304 14.4486 21.6981 14.7005ZM10.2059 16.8499C10.2059 16.924 10.2059 16.8688 10.2059 16.8499Z" fill="#1C1C1C"/>
</svg>
