<svg width="32" height="32" viewBox="0 0 32 32" fill="none" xmlns="http://www.w3.org/2000/svg">
<path fill-rule="evenodd" clip-rule="evenodd" d="M25.4364 30.0385V1.9615L6.53015 1.96149L6.53015 30.0385H15.3011V14.0585C15.3159 14.0476 15.3383 14.0331 15.3705 14.0165C15.4476 13.9767 15.5515 13.9402 15.6718 13.9144C15.7913 13.8887 15.9027 13.8787 15.9833 13.8787C16.0312 13.8787 16.1238 13.8884 16.2429 13.9208C16.3593 13.9524 16.4717 13.9978 16.5627 14.0492C16.6098 14.0758 16.6431 14.0994 16.6655 14.1175V30.0385H25.4364ZM18.6907 5.07013V3.96149H23.4364V5.07013H18.6907ZM23.4364 7.07013H21.524C21.546 7.38807 21.619 7.70079 21.7404 7.99609C21.8887 8.35688 22.1065 8.68443 22.3809 8.96002C22.6553 9.23559 22.9809 9.45378 23.339 9.60231C23.3713 9.61569 23.4038 9.62848 23.4364 9.64068V7.07013ZM23.4364 11.7182C23.1417 11.6555 22.8526 11.5657 22.5728 11.4497C21.9707 11.2 21.4239 10.8334 20.9636 10.3712C20.5034 9.90899 20.1389 9.36027 19.8907 8.75668C19.67 8.21993 19.5451 7.64906 19.5211 7.07013H12.4791C12.4551 7.64903 12.3303 8.21991 12.1096 8.75668C11.8614 9.36027 11.4968 9.90899 11.0366 10.3712C10.5763 10.8334 10.0295 11.2 9.4274 11.4497C9.13701 11.5702 8.83654 11.6623 8.53015 11.7252V28.0385H13.3011V14.0106C13.3011 13.0732 13.9241 12.5123 14.4534 12.2392C14.9692 11.973 15.5547 11.8787 15.9833 11.8787C16.4738 11.8787 17.0627 12.0345 17.5466 12.308C17.9963 12.5621 18.6655 13.1072 18.6655 14.0106V28.0385H23.4364V11.7182ZM8.53015 9.65301C8.57418 9.63718 8.61787 9.62027 8.66119 9.60231C9.01931 9.45378 9.34494 9.23559 9.61933 8.96002C9.89373 8.68443 10.1115 8.35688 10.2598 7.99609C10.3812 7.70081 10.4542 7.38809 10.4762 7.07013H8.53015V9.65301ZM8.53015 5.07013V3.96149H13.3011V5.07013H8.53015ZM15.3011 3.96149V5.07013H16.6907V3.96149H15.3011Z" fill="#1C1C1C"/>
</svg>
