<svg width="32" height="32" viewBox="0 0 32 32" fill="none" xmlns="http://www.w3.org/2000/svg">
<path fill-rule="evenodd" clip-rule="evenodd" d="M5.48892 14.5731L16.0347 10.6843L18.5572 17.3102L8.01143 21.199L5.48892 14.5731ZM8.077 15.7503L9.17633 18.6379L15.9691 16.133L14.8698 13.2454L8.077 15.7503Z" fill="#1C1C1C"/>
<path fill-rule="evenodd" clip-rule="evenodd" d="M21.0623 6.86401L21.0623 5.24394L21.0623 5.24019C21.059 4.36442 20.7031 3.52893 20.0778 2.91576C19.4529 2.3031 18.6102 1.96191 17.735 1.96191H14.2569C13.3818 1.96191 12.5394 2.30387 11.9158 2.91757C11.2917 3.53179 10.9381 4.36827 10.9381 5.24394V6.86401H4.52645C2.49997 6.86401 0.829834 8.48495 0.829834 10.5179V23.5171C0.829834 25.5501 2.49997 27.171 4.52645 27.171H7.22772V28.8952H9.22772V27.171H22.7724V28.8952H24.7724V27.171H27.4734C29.4999 27.171 31.17 25.5501 31.17 23.5171V10.5179C31.17 8.48495 29.4999 6.86401 27.4734 6.86401H21.0623ZM14.2569 3.96191C13.902 3.96191 13.5648 4.10079 13.3187 4.34303C13.0731 4.58474 12.9381 4.90914 12.9381 5.24394V6.86401H19.0623V5.24606C19.0606 4.91039 18.9242 4.58569 18.6775 4.3438C18.4299 4.10102 18.0913 3.96191 17.735 3.96191H14.2569ZM2.82983 22.1568V23.5171C2.82983 24.4156 3.57433 25.171 4.52645 25.171H5.34057C5.26575 24.3839 4.91928 23.6389 4.3494 23.0642C3.92636 22.6375 3.40234 22.3271 2.82983 22.1568ZM7.34625 25.171C7.26747 23.8526 6.70893 22.6034 5.76965 21.656C4.96752 20.847 3.93893 20.3094 2.82983 20.1022V10.5179C2.82983 9.61948 3.57433 8.86401 4.52645 8.86401H23.2618V11.2223L21.5955 12.0677V19.1839H26.9276V12.0677L25.2618 11.2226V8.86401H27.4734C28.4256 8.86401 29.17 9.61948 29.17 10.5179V20.0533C27.9437 20.2125 26.7973 20.7723 25.9212 21.656C24.9819 22.6033 24.4233 23.8525 24.3445 25.171H7.34625ZM26.3502 25.171H27.4734C28.4256 25.171 29.17 24.4156 29.17 23.5171V22.0795C28.4776 22.2207 27.8395 22.5618 27.3414 23.0642C26.7715 23.639 26.4251 24.3839 26.3502 25.171ZM23.5955 13.2957V17.1839H24.9276V13.2957L24.2615 12.9578L23.5955 13.2957Z" fill="#1C1C1C"/>
</svg>
